<svg width="78" height="46" viewBox="0 0 78 46" fill="none" xmlns="http://www.w3.org/2000/svg">
<g clip-path="url(#clip0_1994_29406)">
<path d="M12.9803 27.3365C17.0994 21.5328 19.1575 18.5369 19.1575 15.6674C19.1575 12.7978 17.2847 11.1721 13.8536 11.1721C10.7341 11.1721 6.73866 12.6069 3.11944 15.4793V3.68099C5.61555 1.93456 10.546 0 16.0998 0C25.8989 0 32.2641 6.11533 32.2641 14.2298C32.2641 18.9721 30.0797 23.2765 26.0842 29.1447L22.1533 34.8866L22.2151 35.0102H33.9488V45.8706H0.0617711L0 45.7471L12.9803 27.3365Z" fill="#0B2341"/>
<path d="M48.8241 22.1477H48.8831V0H35.5293V30.1583C38.0338 25.4834 43.2198 22.1702 48.8241 22.1477Z" fill="#0B2341"/>
<path d="M64.7015 23.7201H64.6426V45.8678H77.9964V15.7095C75.4918 20.3844 70.3059 23.6976 64.7015 23.7201Z" fill="#0B2341"/>
<path d="M48.8278 23.7201H59.7191C53.1854 25.8652 48.8839 32.1855 48.8839 39.6626V45.8678H35.5273V36.2849C35.5273 36.1192 35.5358 35.9536 35.5414 35.7879C35.839 29.2233 42.0049 23.7482 48.825 23.7201H48.8278ZM64.644 0V6.20518C64.644 13.6823 60.3425 20.0026 53.806 22.1477H64.6973C71.5202 22.1197 77.6861 16.6417 77.9809 10.0743C77.9865 9.91145 77.9949 9.7486 77.9949 9.58294V0H64.6412H64.644Z" fill="url(#paint0_linear_1994_29406)"/>
</g>
<defs>
<linearGradient id="paint0_linear_1994_29406" x1="41.5248" y1="49.3298" x2="72.0032" y2="-3.46199" gradientUnits="userSpaceOnUse">
<stop offset="0.1" stop-color="#0B2341"/>
<stop offset="0.4" stop-color="#00B6ED"/>
<stop offset="0.5" stop-color="#00B6ED"/>
<stop offset="0.9" stop-color="#45ECB4"/>
</linearGradient>
<clipPath id="clip0_1994_29406">
<rect width="78" height="45.8706" fill="white"/>
</clipPath>
</defs>
</svg>
